<svg width="498" height="189" viewBox="0 0 498 189" fill="none" xmlns="http://www.w3.org/2000/svg">
<path d="M138.363 148.576C138.089 147.735 137.362 147.122 136.489 146.995L107.871 142.835L95.0729 116.902C94.2906 115.314 91.6929 115.314 90.9083 116.902L78.1104 142.835L49.492 146.995C48.6192 147.122 47.8926 147.733 47.6186 148.576C47.3447 149.414 47.5722 150.338 48.206 150.953L68.9152 171.14L66.884 182.99C66.6681 184.253 67.5154 185.456 68.7806 185.669C70.0551 185.892 71.2459 185.038 71.4618 183.775L73.6997 170.72C73.8274 169.967 73.579 169.199 73.0311 168.665L54.8173 150.911L79.9884 147.252C80.7451 147.143 81.3975 146.667 81.7364 145.983L92.9929 123.175L104.249 145.983C104.588 146.667 105.241 147.143 105.997 147.252L131.168 150.911L112.955 168.665C112.409 169.197 112.158 169.967 112.286 170.72L114.524 183.775C114.719 184.906 115.699 185.704 116.811 185.704C116.941 185.704 117.073 185.693 117.205 185.669C118.468 185.454 119.318 184.253 119.102 182.99L117.068 171.14L137.778 150.953C138.407 150.335 138.636 149.414 138.363 148.576Z" fill="#3498DB"/>
<path d="M171.378 185.707C172.659 185.707 173.699 184.669 173.699 183.385V85.3962H182.813C184.095 85.3962 185.135 84.3585 185.135 83.0748V65.5737C185.135 64.29 184.095 63.2523 182.813 63.2523H160.992V52.2976C160.992 51.6615 160.73 51.051 160.268 50.6122L150.42 41.2686L153.886 37.8027C154.764 36.9229 154.796 35.5091 153.956 34.5922L129.644 8.07009C129.641 8.06777 129.639 8.06777 129.637 8.06544C128.996 6.45439 128.047 4.96636 126.814 3.7337C121.834 -1.24573 113.735 -1.2434 108.758 3.7337C106.346 6.14564 105.018 9.3515 105.018 12.764C105.018 16.1741 106.346 19.3823 108.758 21.7919C109.993 23.0269 111.479 23.9787 113.092 24.6194C113.092 24.6194 113.092 24.6217 113.094 24.6217L139.619 48.9362C140.062 49.3447 140.626 49.5467 141.188 49.5467C141.782 49.5467 142.377 49.3192 142.829 48.8665L147.138 44.558L156.351 53.2981V63.2546H94.8899V56.7245C100.949 55.8029 105.612 50.5728 105.612 44.2608V32.6538C105.612 25.6942 99.9506 20.03 92.9887 20.03C86.0268 20.03 80.3648 25.6919 80.3648 32.6538V44.2608C80.3648 50.2779 84.6014 55.3177 90.2448 56.5736V63.2523H29.3681V50.9604L39.3548 40.9761L39.7564 41.3777C41.6971 43.3184 44.246 44.2864 46.7926 44.2864C49.3415 44.2864 51.8904 43.3184 53.8311 41.3777L74.1644 21.0421C76.0447 19.1618 77.0801 16.6639 77.0801 14.0059C77.0801 11.3479 76.0447 8.84776 74.1644 6.96974L70.4014 3.20674C66.52 -0.67466 60.2057 -0.67466 56.3267 3.20674L35.9934 23.5423C34.1131 25.4226 33.0777 27.9205 33.0777 30.5785C33.0777 33.2365 34.1131 35.7366 35.9934 37.6147L36.07 37.6913L25.4032 48.3558C24.9667 48.7922 24.723 49.3796 24.723 49.997V63.25H2.32141C1.03999 63.25 0 64.2876 0 65.5714V83.0725C0 84.3562 1.03999 85.3939 2.32141 85.3939H11.8229V183.383C11.8229 184.667 12.8629 185.704 14.1443 185.704C15.4258 185.704 16.4657 184.667 16.4657 183.383V85.3962H169.057V183.385C169.057 184.667 170.097 185.707 171.378 185.707ZM109.661 12.764C109.661 10.5911 110.506 8.55294 112.04 7.01617C115.207 3.85209 120.363 3.85209 123.531 7.01617C124.174 7.6592 124.655 8.4299 125.05 9.24008L114.267 20.023C113.457 19.6284 112.686 19.1502 112.043 18.5071C110.506 16.9727 109.661 14.9322 109.661 12.764ZM141.116 44.0101L118.018 22.8366L127.859 12.9961L149.032 36.0941L141.116 44.0101ZM85.01 44.2585V32.6515C85.01 28.2501 88.5896 24.6705 92.991 24.6705C97.3924 24.6705 100.972 28.2501 100.972 32.6515V44.2585C100.972 48.6599 97.3924 52.2395 92.991 52.2395C88.5896 52.2395 85.01 48.6599 85.01 44.2585ZM39.2782 26.8224L59.6115 6.48689C61.6798 4.41851 65.0482 4.41619 67.1212 6.48689L70.8842 10.2499C71.8871 11.2527 72.4396 12.5852 72.4396 14.0036C72.4396 15.422 71.8871 16.7568 70.8842 17.7573L50.551 38.0929C48.4803 40.1612 45.1096 40.1612 43.0412 38.0929L39.2782 34.3299C38.2754 33.327 37.7229 31.9945 37.7229 30.5761C37.7229 29.1578 38.2754 27.8253 39.2782 26.8224ZM4.64514 67.8951H180.492V80.7534H4.64514V67.8951Z" fill="#3498DB"/>
<path d="M473.762 185.798C466.957 185.798 461.769 183.884 458.197 180.057C454.625 176.145 452.839 170.574 452.839 163.345V97.2183C452.839 96.1137 453.734 95.2183 454.839 95.2183H464.872C465.977 95.2183 466.872 96.1137 466.872 97.2183V164.365C466.872 167.427 467.468 169.638 468.658 170.999C469.934 172.36 471.72 173.04 474.017 173.04C476.313 173.04 478.057 172.36 479.247 170.999C480.523 169.638 481.161 167.427 481.161 164.365V97.2183C481.161 96.1137 482.056 95.2183 483.161 95.2183H492.684C493.789 95.2183 494.684 96.1137 494.684 97.2183V163.345C494.684 170.574 492.898 176.145 489.326 180.057C485.754 183.884 480.566 185.798 473.762 185.798Z" fill="black"/>
<path d="M358.08 97.2183C358.08 96.1137 358.975 95.2183 360.08 95.2183H374.132C375.046 95.2183 375.843 95.8378 376.07 96.7234L389.308 148.565C389.325 148.629 389.382 148.673 389.448 148.673V148.673C389.527 148.673 389.591 148.609 389.591 148.53V97.2183C389.591 96.1137 390.487 95.2183 391.591 95.2183H400.094C401.198 95.2183 402.094 96.1137 402.094 97.2183V182.522C402.094 183.627 401.198 184.522 400.094 184.522H389.227C388.315 184.522 387.518 183.905 387.29 183.023L370.865 119.438C370.849 119.375 370.792 119.33 370.726 119.33V119.33C370.647 119.33 370.582 119.395 370.582 119.474V182.522C370.582 183.627 369.687 184.522 368.582 184.522H360.08C358.975 184.522 358.08 183.627 358.08 182.522V97.2183Z" fill="black"/>
<path d="M292.711 97.2183C292.711 96.1137 293.606 95.2183 294.711 95.2183H304.744C305.849 95.2183 306.744 96.1137 306.744 97.2183V182.522C306.744 183.627 305.849 184.522 304.744 184.522H294.711C293.606 184.522 292.711 183.627 292.711 182.522V97.2183Z" fill="black"/>
<path d="M216.387 109.976C216.387 108.871 215.492 107.976 214.387 107.976H203.716C202.611 107.976 201.716 107.081 201.716 105.976V97.2183C201.716 96.1137 202.611 95.2183 203.716 95.2183H243.092C244.197 95.2183 245.092 96.1137 245.092 97.2183V105.976C245.092 107.081 244.197 107.976 243.092 107.976H232.421C231.316 107.976 230.421 108.871 230.421 109.976V182.522C230.421 183.627 229.525 184.522 228.421 184.522H218.387C217.283 184.522 216.387 183.627 216.387 182.522V109.976Z" fill="black"/>
<path d="M476.963 189C470.159 189 464.971 187.086 461.399 183.259C457.827 179.347 456.041 173.776 456.041 166.546V100.42C456.041 99.3156 456.936 98.4202 458.041 98.4202H468.074C469.179 98.4202 470.074 99.3156 470.074 100.42V167.567C470.074 170.629 470.669 172.84 471.86 174.201C473.136 175.562 474.922 176.242 477.218 176.242C479.515 176.242 481.258 175.562 482.449 174.201C483.725 172.84 484.363 170.629 484.363 167.567V100.42C484.363 99.3156 485.258 98.4202 486.363 98.4202H495.886C496.99 98.4202 497.886 99.3156 497.886 100.42V166.546C497.886 173.776 496.1 179.347 492.528 183.259C488.955 187.086 483.767 189 476.963 189Z" fill="#335533" fill-opacity="0.333333"/>
<path d="M361.282 100.42C361.282 99.3156 362.177 98.4202 363.282 98.4202H377.334C378.248 98.4202 379.046 99.0398 379.272 99.9253L392.511 151.767C392.527 151.831 392.584 151.875 392.65 151.875V151.875C392.729 151.875 392.793 151.811 392.793 151.731V100.42C392.793 99.3156 393.689 98.4202 394.793 98.4202H403.296C404.4 98.4202 405.296 99.3156 405.296 100.42V185.724C405.296 186.829 404.4 187.724 403.296 187.724H392.429C391.517 187.724 390.72 187.107 390.492 186.224L374.067 122.64C374.051 122.577 373.994 122.532 373.928 122.532V122.532C373.849 122.532 373.784 122.597 373.784 122.676V185.724C373.784 186.829 372.889 187.724 371.784 187.724H363.282C362.177 187.724 361.282 186.829 361.282 185.724V100.42Z" fill="#335533" fill-opacity="0.333333"/>
<path d="M295.913 100.42C295.913 99.3156 296.808 98.4202 297.913 98.4202H307.946C309.051 98.4202 309.946 99.3156 309.946 100.42V185.724C309.946 186.829 309.051 187.724 307.946 187.724H297.913C296.808 187.724 295.913 186.829 295.913 185.724V100.42Z" fill="#335533" fill-opacity="0.333333"/>
<path d="M219.589 113.178C219.589 112.073 218.693 111.178 217.589 111.178H206.917C205.813 111.178 204.917 110.282 204.917 109.178V100.42C204.917 99.3156 205.813 98.4202 206.917 98.4202H246.294C247.398 98.4202 248.294 99.3156 248.294 100.42V109.178C248.294 110.282 247.398 111.178 246.294 111.178H235.622C234.518 111.178 233.622 112.073 233.622 113.178V185.724C233.622 186.829 232.727 187.724 231.622 187.724H221.589C220.484 187.724 219.589 186.829 219.589 185.724V113.178Z" fill="#335533" fill-opacity="0.333333"/>
<path d="M487.992 87.7232H474.923L472.516 94.3864H468.389L479.222 64.5957H483.736L494.526 94.3864H490.399L487.992 87.7232ZM486.874 84.5421L481.458 69.4104L476.041 84.5421H486.874Z" fill="#3498DB"/>
<path d="M465.556 64.4236V67.6047H452.531V77.7069H463.106V80.888H452.531V94.3862H448.619V64.4236H465.556Z" fill="#3498DB"/>
<path d="M437.363 87.7232H424.295L421.888 94.3864H417.761L428.594 64.5957H433.107L443.897 94.3864H439.771L437.363 87.7232ZM436.246 84.5421L430.829 69.4104L425.413 84.5421H436.246Z" fill="#3498DB"/>
<path d="M414.837 64.4236V67.6047H406.669V94.3862H402.758V67.6047H394.547V64.4236H414.837Z" fill="#3498DB"/>
<path d="M380.666 94.6873C378.688 94.6873 376.911 94.3434 375.335 93.6556C373.788 92.9391 372.57 91.9647 371.681 90.7324C370.793 89.4714 370.334 88.0242 370.306 86.3906H374.476C374.619 87.7949 375.192 88.9842 376.195 89.9586C377.227 90.9044 378.717 91.3772 380.666 91.3772C382.529 91.3772 383.99 90.9187 385.051 90.0016C386.14 89.0559 386.684 87.8522 386.684 86.3906C386.684 85.2443 386.369 84.3129 385.738 83.5964C385.108 82.8799 384.32 82.3354 383.374 81.9629C382.428 81.5903 381.153 81.1891 379.548 80.7592C377.571 80.2433 375.98 79.7275 374.776 79.2116C373.601 78.6958 372.584 77.8933 371.724 76.8043C370.893 75.6866 370.478 74.1964 370.478 72.3335C370.478 70.7 370.893 69.2527 371.724 67.9918C372.555 66.7308 373.716 65.7564 375.206 65.0686C376.725 64.3808 378.459 64.0369 380.408 64.0369C383.216 64.0369 385.509 64.739 387.286 66.1433C389.091 67.5476 390.109 69.4104 390.338 71.7317H386.039C385.896 70.5854 385.294 69.5823 384.234 68.7226C383.173 67.8341 381.769 67.3899 380.021 67.3899C378.387 67.3899 377.055 67.8198 376.023 68.6796C374.991 69.5107 374.476 70.6857 374.476 72.2046C374.476 73.2936 374.776 74.182 375.378 74.8698C376.009 75.5576 376.768 76.0878 377.657 76.4604C378.574 76.8043 379.849 77.2055 381.483 77.6641C383.46 78.2086 385.051 78.7531 386.254 79.2976C387.458 79.8135 388.49 80.6302 389.349 81.7479C390.209 82.8369 390.639 84.3272 390.639 86.2187C390.639 87.6803 390.252 89.0559 389.478 90.3455C388.705 91.6352 387.558 92.6812 386.039 93.4836C384.52 94.2861 382.729 94.6873 380.666 94.6873Z" fill="#3498DB"/>
<path d="M350.955 94.6873C348.175 94.6873 345.639 94.0425 343.346 92.7528C341.053 91.4345 339.234 89.6147 337.887 87.2933C336.568 84.9433 335.909 82.3067 335.909 79.3836C335.909 76.4604 336.568 73.8381 337.887 71.5168C339.234 69.1667 341.053 67.3469 343.346 66.0573C345.639 64.739 348.175 64.0798 350.955 64.0798C353.764 64.0798 356.314 64.739 358.607 66.0573C360.9 67.3469 362.705 69.1524 364.023 71.4738C365.342 73.7951 366.001 76.4317 366.001 79.3836C366.001 82.3354 365.342 84.972 364.023 87.2933C362.705 89.6147 360.9 91.4345 358.607 92.7528C356.314 94.0425 353.764 94.6873 350.955 94.6873ZM350.955 91.2912C353.047 91.2912 354.924 90.804 356.586 89.8296C358.277 88.8552 359.596 87.4653 360.541 85.6598C361.516 83.8543 362.003 81.7622 362.003 79.3836C362.003 76.9762 361.516 74.8841 360.541 73.1073C359.596 71.3018 358.292 69.9119 356.629 68.9375C354.967 67.9631 353.076 67.4759 350.955 67.4759C348.834 67.4759 346.943 67.9631 345.281 68.9375C343.618 69.9119 342.3 71.3018 341.326 73.1073C340.38 74.8841 339.907 76.9762 339.907 79.3836C339.907 81.7622 340.38 83.8543 341.326 85.6598C342.3 87.4653 343.618 88.8552 345.281 89.8296C346.971 90.804 348.863 91.2912 350.955 91.2912Z" fill="#3498DB"/>
<path d="M330.737 64.6387V94.3864H326.825V72.2046L316.938 94.3864H314.186L304.256 72.1616V94.3864H300.344V64.6387H304.557L315.562 89.2278L326.567 64.6387H330.737Z" fill="#3498DB"/>
<path d="M278.506 94.3862L271.37 82.1346H266.641V94.3862H262.729V64.4236H272.402C274.666 64.4236 276.572 64.8105 278.119 65.5843C279.695 66.358 280.87 67.4041 281.644 68.7224C282.418 70.0407 282.805 71.5453 282.805 73.2361C282.805 75.2995 282.203 77.1194 280.999 78.6956C279.824 80.2718 278.048 81.3179 275.669 81.8337L283.192 94.3862H278.506ZM266.641 78.9965H272.402C274.523 78.9965 276.113 78.4807 277.173 77.4489C278.234 76.3886 278.764 74.9843 278.764 73.2361C278.764 71.4593 278.234 70.0837 277.173 69.1093C276.142 68.1349 274.551 67.6477 272.402 67.6477H266.641V78.9965Z" fill="#3498DB"/>
<path d="M237.547 64.4236V83.3813C237.547 86.0465 238.191 88.024 239.481 89.3136C240.799 90.6033 242.619 91.2481 244.941 91.2481C247.233 91.2481 249.024 90.6033 250.314 89.3136C251.632 88.024 252.292 86.0465 252.292 83.3813V64.4236H256.203V83.3383C256.203 85.8316 255.702 87.938 254.699 89.6575C253.696 91.3484 252.335 92.6094 250.615 93.4405C248.924 94.2716 247.018 94.6871 244.898 94.6871C242.777 94.6871 240.857 94.2716 239.137 93.4405C237.446 92.6094 236.099 91.3484 235.096 89.6575C234.122 87.938 233.635 85.8316 233.635 83.3383V64.4236H237.547Z" fill="#3498DB"/>
<path d="M227.053 94.3862H223.141L207.407 70.5279V94.3862H203.495V64.3806H207.407L223.141 88.196V64.3806H227.053V94.3862Z" fill="#3498DB"/>
</svg>
